<svg width="20" height="21" fill="none" xmlns="http://www.w3.org/2000/svg"><path d="M15.02 1.598A9.768 9.768 0 0 0 10 .25C8.19.25 6.517.7 4.98 1.598A9.875 9.875 0 0 0 0 10.25c0 1.81.443 3.483 1.328 5.02a10.026 10.026 0 0 0 3.652 3.652c1.537.885 3.21 1.328 5.02 1.328a9.875 9.875 0 0 0 8.652-4.98A9.768 9.768 0 0 0 20 10.25c0-1.81-.45-3.483-1.348-5.02a9.728 9.728 0 0 0-3.633-3.632zM10 19.019c-.95 0-1.875-.143-2.773-.43a8.316 8.316 0 0 1-2.403-1.269 10.042 10.042 0 0 1-1.894-1.894 8.598 8.598 0 0 1-1.25-2.403 9.075 9.075 0 0 1-.43-2.773c0-1.185.228-2.318.684-3.398a8.924 8.924 0 0 1 1.875-2.793 8.659 8.659 0 0 1 2.793-1.856A8.452 8.452 0 0 1 10 1.5c1.185 0 2.318.234 3.398.703a8.658 8.658 0 0 1 2.793 1.856 8.66 8.66 0 0 1 1.856 2.793 8.452 8.452 0 0 1 .703 3.398 8.452 8.452 0 0 1-.703 3.398 8.89 8.89 0 0 1-1.856 2.813 8.921 8.921 0 0 1-2.793 1.875A8.657 8.657 0 0 1 10 19.02zm.625-9.023V4a.556.556 0 0 0-.195-.43.556.556 0 0 0-.43-.195.617.617 0 0 0-.45.195.584.584 0 0 0-.175.43v6.25c0 .182.065.332.195.45v.019l.02.02 3.105 3.085c.117.13.26.196.43.196a.609.609 0 0 0 .45-.176.652.652 0 0 0 .175-.45.608.608 0 0 0-.176-.449l-2.949-2.949z" fill="#00A031"/></svg>