<svg width="32" height="32" fill="none" xmlns="http://www.w3.org/2000/svg"><path fill-rule="evenodd" clip-rule="evenodd" d="M15.757 0C7.055 0 0 7.055 0 15.757s7.055 15.757 15.757 15.757h3.151a1.58 1.58 0 0 0 1.575-1.576v-2.386h-4.727a11.776 11.776 0 0 1-6.33-1.838.788.788 0 0 1 .845-1.33 10.2 10.2 0 0 0 5.485 1.592h4.727v-2.342a1.58 1.58 0 0 0-1.575-1.575h-3.151a6.303 6.303 0 1 1 6.302-6.303v14.181a1.58 1.58 0 0 0 1.576 1.576h6.301a1.582 1.582 0 0 0 1.578-1.576v-14.18C31.514 7.055 24.459 0 15.757 0zm6.556 6.83a.767.767 0 0 1-1.058.236A10.266 10.266 0 0 0 7.088 21.233a.766.766 0 1 1-1.293.822A11.798 11.798 0 0 1 22.076 5.773c.357.228.463.7.236 1.058zm4.473 20.723a.788.788 0 0 0 .788-.788V15.734a11.776 11.776 0 0 0-1.838-6.33.788.788 0 1 0-1.33.844 10.2 10.2 0 0 1 1.592 5.486v11.031c0 .435.353.788.788.788z" fill="#fff"/></svg>