<svg width="20" height="21" fill="none" xmlns="http://www.w3.org/2000/svg"><path d="M19.316 14.254a.591.591 0 0 1-.351.332.54.54 0 0 1-.469-.02.594.594 0 0 1-.332-.332.581.581 0 0 1 .02-.488c.234-.52.384-1.055.449-1.601.078-.547.117-1.179.117-1.895 0-1.21-.234-2.344-.703-3.398a8.557 8.557 0 0 0-1.875-2.774 8.556 8.556 0 0 0-2.774-1.875A8.272 8.272 0 0 0 10 1.5c-1.21 0-2.35.234-3.418.703a8.843 8.843 0 0 0-2.773 1.875 8.986 8.986 0 0 0-1.875 2.774 8.475 8.475 0 0 0-.684 3.398c0 1.21.228 2.35.684 3.418a9.305 9.305 0 0 0 1.875 2.773 9.303 9.303 0 0 0 2.773 1.875A8.615 8.615 0 0 0 10 19c.833 0 1.647-.117 2.441-.352a8.87 8.87 0 0 0 2.266-1.015c.026-.013.117-.085.273-.215a.833.833 0 0 0 .313-.547.904.904 0 0 0-.078-.508 2.274 2.274 0 0 0-.332-.586l-.274.313c-.104.104-.24.202-.41.293-.156.078-.364.117-.625.117-.338 0-.736-.091-1.191-.273a10.09 10.09 0 0 1-1.485-.762 21.008 21.008 0 0 1-1.66-1.211A23.329 23.329 0 0 1 7.52 12.69a31.737 31.737 0 0 1-1.543-1.718A15.984 15.984 0 0 1 4.55 9c-.39-.677-.651-1.309-.781-1.895-.118-.598 0-1.074.351-1.425L5.84 4.156A.737.737 0 0 1 6.29 4a.577.577 0 0 1 .43.215l2.225 2.558a.586.586 0 0 1 .137.332.671.671 0 0 1-.059.352l-.82 1.64 2.95 2.95 1.64-.82a.63.63 0 0 1 .352-.059c.13.013.24.059.332.137l2.558 2.207c.065.052.11.117.137.195a.83.83 0 0 1 .078.234.926.926 0 0 1-.04.254.49.49 0 0 1-.116.196l-.371.43c.312.39.533.774.664 1.152.143.364.189.729.136 1.093-.078.534-.286.938-.625 1.211-.325.26-.514.404-.566.43a9.696 9.696 0 0 1-2.539 1.133c-.898.273-1.83.41-2.793.41a9.526 9.526 0 0 1-3.887-.8 10.266 10.266 0 0 1-3.183-2.13A10.553 10.553 0 0 1 .78 14.137 9.731 9.731 0 0 1 0 10.25c0-1.38.26-2.676.781-3.887A10.306 10.306 0 0 1 2.93 3.2a10.1 10.1 0 0 1 3.183-2.148A9.527 9.527 0 0 1 10 .25c1.38 0 2.676.267 3.887.8A9.87 9.87 0 0 1 17.05 3.2a9.87 9.87 0 0 1 2.148 3.163C19.733 7.574 20 8.87 20 10.25c0 .781-.046 1.49-.137 2.129a6.17 6.17 0 0 1-.547 1.875zm-6.347-1.719l-1.66.82a.704.704 0 0 1-.391.079.584.584 0 0 1-.332-.196L6.992 9.664a.635.635 0 0 1-.176-.332.704.704 0 0 1 .079-.39l.82-1.66L6.19 5.503 5.04 6.539c-.052.091-.039.287.04.586.09.3.266.684.526 1.152.26.456.619.983 1.075 1.582a19.407 19.407 0 0 0 1.718 1.934c.56.56 1.1 1.055 1.622 1.484.533.43 1.028.795 1.484 1.094.456.287.86.508 1.21.664.365.143.652.215.86.215h.098l.039-.02 1.035-1.19-1.777-1.505z" fill="#00A031"/></svg>