<svg width="20" height="15" fill="none" xmlns="http://www.w3.org/2000/svg"><path d="M18.125 14.125H1.875c-.52 0-.964-.182-1.328-.547A1.808 1.808 0 0 1 0 12.25v-10c0-.52.182-.964.547-1.328A1.808 1.808 0 0 1 1.875.375h16.25c.52 0 .963.182 1.328.547.365.364.547.807.547 1.328v10c0 .52-.182.963-.547 1.328a1.808 1.808 0 0 1-1.328.547zm-16.25-1.25h16.25c.17 0 .313-.059.43-.176.13-.13.195-.28.195-.449V2.445l-8.34 7.149a.778.778 0 0 1-.195.117.573.573 0 0 1-.215.039.573.573 0 0 1-.215-.04.777.777 0 0 1-.195-.116L1.25 2.445v9.805c0 .17.059.319.176.45.13.116.28.175.449.175zm15.918-11.25H2.207L10 8.305l7.793-6.68z" fill="#00A031"/></svg>