<svg width="20" height="15" viewBox="0 0 20 15" fill="none" xmlns="http://www.w3.org/2000/svg">
<path d="M18.125 14.125H1.875C1.35417 14.125 0.911458 13.9427 0.546875 13.5781C0.182292 13.2135 0 12.7708 0 12.25V2.25C0 1.72917 0.182292 1.28646 0.546875 0.921875C0.911458 0.557292 1.35417 0.375 1.875 0.375H18.125C18.6458 0.375 19.0885 0.557292 19.4531 0.921875C19.8177 1.28646 20 1.72917 20 2.25V12.25C20 12.7708 19.8177 13.2135 19.4531 13.5781C19.0885 13.9427 18.6458 14.125 18.125 14.125ZM1.875 12.875H18.125C18.2943 12.875 18.4375 12.8164 18.5547 12.6992C18.6849 12.569 18.75 12.4193 18.75 12.25V2.44531L10.4102 9.59375C10.3451 9.64583 10.2799 9.6849 10.2148 9.71094C10.1497 9.73698 10.0781 9.75 10 9.75C9.92188 9.75 9.85026 9.73698 9.78516 9.71094C9.72005 9.6849 9.65495 9.64583 9.58984 9.59375L1.25 2.44531V12.25C1.25 12.4193 1.30859 12.569 1.42578 12.6992C1.55599 12.8164 1.70573 12.875 1.875 12.875ZM17.793 1.625H2.20703L10 8.30469L17.793 1.625Z" fill="#00A031"/>
</svg>
