<svg width="20" height="21" viewBox="0 0 20 21" fill="none" xmlns="http://www.w3.org/2000/svg">
<path d="M15.0195 1.59766C13.4831 0.699219 11.8099 0.25 10 0.25C8.1901 0.25 6.51693 0.699219 4.98047 1.59766C3.44401 2.48307 2.22656 3.69401 1.32812 5.23047C0.442708 6.76693 0 8.4401 0 10.25C0 12.0599 0.442708 13.7331 1.32812 15.2695C2.22656 16.806 3.44401 18.0234 4.98047 18.9219C6.51693 19.8073 8.1901 20.25 10 20.25C11.8099 20.25 13.4831 19.8073 15.0195 18.9219C16.556 18.0234 17.7669 16.806 18.6523 15.2695C19.5508 13.7331 20 12.0599 20 10.25C20 8.4401 19.5508 6.76693 18.6523 5.23047C17.7669 3.69401 16.556 2.48307 15.0195 1.59766ZM10 19.0195C9.04948 19.0195 8.125 18.8763 7.22656 18.5898C6.34115 18.2904 5.54036 17.8672 4.82422 17.3203C4.10807 16.7734 3.47656 16.1419 2.92969 15.4258C2.39583 14.7096 1.97917 13.9089 1.67969 13.0234C1.39323 12.125 1.25 11.2005 1.25 10.25C1.25 9.0651 1.47786 7.93229 1.93359 6.85156C2.40234 5.77083 3.02734 4.83984 3.80859 4.05859C4.58984 3.27734 5.52083 2.65885 6.60156 2.20312C7.68229 1.73438 8.8151 1.5 10 1.5C11.1849 1.5 12.3177 1.73438 13.3984 2.20312C14.4792 2.65885 15.4102 3.27734 16.1914 4.05859C16.9727 4.83984 17.5911 5.77083 18.0469 6.85156C18.5156 7.93229 18.75 9.0651 18.75 10.25C18.75 11.4349 18.5156 12.5677 18.0469 13.6484C17.5911 14.7292 16.9727 15.6667 16.1914 16.4609C15.4102 17.2422 14.4792 17.8672 13.3984 18.3359C12.3177 18.7917 11.1849 19.0195 10 19.0195ZM10.625 9.99609V4C10.625 3.83073 10.5599 3.6875 10.4297 3.57031C10.3125 3.4401 10.1693 3.375 10 3.375C9.83073 3.375 9.68099 3.4401 9.55078 3.57031C9.43359 3.6875 9.375 3.83073 9.375 4V10.25C9.375 10.4323 9.4401 10.582 9.57031 10.6992C9.57031 10.6992 9.57031 10.7057 9.57031 10.7188C9.58333 10.7318 9.58984 10.7383 9.58984 10.7383L12.6953 13.8242C12.8125 13.9544 12.9557 14.0195 13.125 14.0195C13.3073 14.0195 13.457 13.9609 13.5742 13.8438C13.6914 13.7135 13.75 13.5638 13.75 13.3945C13.75 13.2122 13.6914 13.0625 13.5742 12.9453L10.625 9.99609Z" fill="#00A031"/>
</svg>
