<svg width="20" height="21" viewBox="0 0 20 21" fill="none" xmlns="http://www.w3.org/2000/svg">
<path d="M19.3164 14.2539C19.2513 14.4102 19.1341 14.5208 18.9648 14.5859C18.8086 14.651 18.6523 14.6445 18.4961 14.5664C18.3398 14.5013 18.2292 14.3906 18.1641 14.2344C18.099 14.0651 18.1055 13.9023 18.1836 13.7461C18.418 13.2253 18.5677 12.6914 18.6328 12.1445C18.7109 11.5977 18.75 10.9661 18.75 10.25C18.75 9.03906 18.5156 7.90625 18.0469 6.85156C17.5911 5.78385 16.9661 4.85938 16.1719 4.07812C15.3906 3.28385 14.4661 2.65885 13.3984 2.20312C12.3438 1.73438 11.2109 1.5 10 1.5C8.78906 1.5 7.64974 1.73438 6.58203 2.20312C5.52734 2.65885 4.60286 3.28385 3.80859 4.07812C3.02734 4.85938 2.40234 5.78385 1.93359 6.85156C1.47786 7.90625 1.25 9.03906 1.25 10.25C1.25 11.4609 1.47786 12.6003 1.93359 13.668C2.40234 14.7227 3.02734 15.6471 3.80859 16.4414C4.60286 17.2227 5.52734 17.8477 6.58203 18.3164C7.64974 18.7721 8.78906 19 10 19C10.8333 19 11.6471 18.8828 12.4414 18.6484C13.2487 18.4141 14.0039 18.0755 14.707 17.6328C14.7331 17.6198 14.8242 17.5482 14.9805 17.418C15.1497 17.2878 15.2539 17.1055 15.293 16.8711C15.319 16.7148 15.293 16.5456 15.2148 16.3633C15.1497 16.181 15.0391 15.9857 14.8828 15.7773L14.6094 16.0898C14.5052 16.194 14.3685 16.2917 14.1992 16.3828C14.043 16.4609 13.8346 16.5 13.5742 16.5C13.2357 16.5 12.8385 16.4089 12.3828 16.2266C11.9271 16.0443 11.4323 15.7904 10.8984 15.4648C10.3776 15.1263 9.82422 14.7227 9.23828 14.2539C8.66536 13.7852 8.09245 13.2643 7.51953 12.6914C7.03776 12.1966 6.52344 11.6237 5.97656 10.9727C5.42969 10.3216 4.95443 9.66406 4.55078 9C4.16016 8.32292 3.89974 7.69141 3.76953 7.10547C3.65234 6.50651 3.76953 6.03125 4.12109 5.67969L5.83984 4.15625C5.90495 4.10417 5.97656 4.0651 6.05469 4.03906C6.13281 4.01302 6.21094 4 6.28906 4C6.36719 4 6.44531 4.01953 6.52344 4.05859C6.60156 4.09766 6.66667 4.14974 6.71875 4.21484L8.94531 6.77344C9.02344 6.86458 9.06901 6.97526 9.08203 7.10547C9.09505 7.22266 9.07552 7.33984 9.02344 7.45703L8.20312 9.09766L11.1523 12.0469L12.793 11.2266C12.8971 11.1745 13.0143 11.1549 13.1445 11.168C13.2747 11.181 13.3854 11.2266 13.4766 11.3047L16.0352 13.5117C16.1003 13.5638 16.1458 13.6289 16.1719 13.707C16.2109 13.7852 16.237 13.8633 16.25 13.9414C16.25 14.0195 16.237 14.1042 16.2109 14.1953C16.1849 14.2734 16.1458 14.3385 16.0938 14.3906L15.7227 14.8203C16.0352 15.2109 16.2565 15.5951 16.3867 15.9727C16.5299 16.3372 16.5755 16.7018 16.5234 17.0664C16.4453 17.6003 16.237 18.0039 15.8984 18.2773C15.5729 18.5378 15.3841 18.681 15.332 18.707C14.5508 19.2018 13.7044 19.5794 12.793 19.8398C11.8945 20.1133 10.9635 20.25 10 20.25C8.61979 20.25 7.32422 19.9831 6.11328 19.4492C4.90234 18.9284 3.84115 18.2188 2.92969 17.3203C2.03125 16.4089 1.3151 15.3477 0.78125 14.1367C0.260417 12.9258 0 11.6302 0 10.25C0 8.86979 0.260417 7.57422 0.78125 6.36328C1.3151 5.15234 2.03125 4.09766 2.92969 3.19922C3.84115 2.28776 4.90234 1.57161 6.11328 1.05078C7.32422 0.516927 8.61979 0.25 10 0.25C11.3802 0.25 12.6758 0.516927 13.8867 1.05078C15.0977 1.57161 16.1523 2.28776 17.0508 3.19922C17.9622 4.09766 18.6784 5.15234 19.1992 6.36328C19.7331 7.57422 20 8.86979 20 10.25C20 11.0312 19.9544 11.7409 19.8633 12.3789C19.7852 13.0169 19.6029 13.6419 19.3164 14.2539ZM12.9688 12.5352L11.3086 13.3555C11.1784 13.4206 11.0482 13.4466 10.918 13.4336C10.7878 13.4076 10.6771 13.3424 10.5859 13.2383L6.99219 9.66406C6.90104 9.57292 6.84245 9.46224 6.81641 9.33203C6.80339 9.20182 6.82943 9.07161 6.89453 8.94141L7.71484 7.28125L6.19141 5.50391L5.03906 6.53906C4.98698 6.63021 5 6.82552 5.07812 7.125C5.16927 7.42448 5.34505 7.80859 5.60547 8.27734C5.86589 8.73307 6.22396 9.26042 6.67969 9.85938C7.13542 10.4583 7.70833 11.1029 8.39844 11.793C8.95833 12.3529 9.4987 12.8477 10.0195 13.2773C10.5534 13.707 11.0482 14.0716 11.5039 14.3711C11.9596 14.6576 12.3633 14.8789 12.7148 15.0352C13.0794 15.1784 13.3659 15.25 13.5742 15.25C13.6263 15.25 13.6589 15.25 13.6719 15.25C13.6979 15.237 13.7109 15.2305 13.7109 15.2305L14.7461 14.0391L12.9688 12.5352Z" fill="#00A031"/>
</svg>
